<?xml version="1.0" standalone="no"?>
<!DOCTYPE svg PUBLIC "-//W3C//DTD SVG 20010904//EN"
 "http://www.w3.org/TR/2001/REC-SVG-20010904/DTD/svg10.dtd">
<svg version="1.0" xmlns="http://www.w3.org/2000/svg"
 width="1519.000000pt" height="857.000000pt" viewBox="0 0 1519.000000 857.000000"
 preserveAspectRatio="xMidYMid meet">

<g transform="translate(0.000000,857.000000) scale(0.100000,-0.100000)"
fill="#000000" stroke="none">
<path d="M5213 6943 c-10 -3 -13 -54 -13 -204 l0 -199 -188 0 c-135 0 -193 -4
-205 -13 -16 -11 -17 -35 -15 -242 l3 -230 200 -5 200 -5 5 -200 5 -200 236
-3 237 -2 6 22 c3 13 6 105 6 205 l0 183 198 2 197 3 3 230 c2 207 1 231 -15
242 -12 9 -69 13 -199 13 l-183 0 -3 195 c-2 161 -6 197 -18 205 -15 10 -434
13 -457 3z m397 -256 c0 -137 3 -196 12 -205 9 -9 68 -12 205 -12 l193 0 0
-175 0 -175 -172 -1 c-189 -1 -218 -3 -230 -22 -4 -6 -8 -96 -8 -199 l0 -188
-170 0 -170 0 0 189 c0 217 -2 224 -74 221 -22 -1 -107 -1 -189 -1 l-147 1 2
173 3 172 195 3 c140 2 196 6 202 15 4 6 8 96 8 198 0 102 3 189 7 192 3 4 80
7 170 7 l163 0 0 -193z"/>
<path d="M5318 6608 l-3 -193 -197 -3 -198 -2 0 -120 0 -120 200 0 200 0 0
-200 0 -200 125 0 125 0 2 198 3 197 193 3 192 2 0 120 0 120 -192 2 -193 3
-3 193 -2 192 -125 0 -125 0 -2 -192z"/>
<path d="M8014 5890 c-204 -65 -327 -242 -326 -469 0 -102 13 -164 49 -238 90
-184 283 -279 510 -252 178 21 332 146 378 307 l6 22 -128 0 -128 0 -23 -34
c-35 -52 -107 -86 -181 -86 -34 0 -76 6 -95 14 -180 75 -208 381 -46 501 98
72 233 57 313 -36 l42 -49 123 0 c96 0 122 3 122 14 0 7 -16 45 -35 83 -56
112 -159 196 -280 227 -83 22 -224 20 -301 -4z"/>
<path d="M5832 5553 c3 -336 4 -350 26 -404 113 -281 573 -307 728 -42 49 83
54 123 54 471 l0 322 -114 0 -115 0 -3 -322 c-3 -302 -4 -325 -23 -357 -35
-60 -67 -76 -150 -76 -83 0 -115 16 -150 76 -19 32 -20 55 -23 357 l-3 322
-115 0 -115 0 3 -347z"/>
<path d="M6810 5414 l0 -485 278 3 c258 3 281 5 332 26 63 25 122 79 145 134
21 51 19 153 -4 203 -21 46 -89 112 -126 121 -26 6 -35 24 -11 24 7 0 34 18
59 40 58 51 81 108 75 188 -5 73 -33 128 -87 169 -73 57 -115 63 -403 63
l-258 0 0 -486z m481 267 c38 -39 40 -97 5 -138 -24 -27 -27 -28 -140 -31
l-116 -4 0 101 0 101 111 0 c109 0 111 0 140 -29z m-18 -355 c63 -26 87 -82
63 -141 -22 -53 -64 -66 -189 -63 l-102 3 -3 94 c-1 52 -1 100 2 108 7 18 185
18 229 -1z"/>
<path d="M5850 4315 l0 -485 120 0 120 0 0 185 0 185 28 0 c25 0 35 -14 126
-181 55 -99 104 -183 111 -185 6 -3 66 -3 133 -2 l122 3 -110 190 -110 190 32
13 c120 49 180 143 179 278 0 64 -27 142 -63 184 -30 36 -91 73 -149 91 -53
16 -93 19 -300 19 l-239 0 0 -485z m467 269 c43 -32 59 -83 42 -135 -22 -66
-50 -81 -168 -87 l-101 -5 0 128 0 127 99 -4 c82 -2 105 -7 128 -24z"/>
<path d="M6760 4315 l0 -485 295 0 295 0 0 95 0 95 -180 0 -180 0 0 105 0 104
158 3 157 3 3 93 3 92 -161 0 -160 0 0 95 0 95 180 0 180 0 0 95 0 95 -295 0
-295 0 0 -485z"/>
<path d="M7510 4315 l0 -485 203 0 c249 0 308 9 414 60 127 62 205 161 238
302 64 274 -86 531 -346 593 -47 11 -123 15 -286 15 l-223 0 0 -485z m445 274
c144 -40 220 -205 171 -373 -35 -121 -126 -178 -286 -180 l-95 -1 -3 283 -2
282 87 0 c49 0 106 -5 128 -11z"/>
<path d="M8191 3710 c-332 -50 -516 -410 -366 -716 176 -360 714 -361 889 -2
135 277 1 611 -279 697 -75 23 -174 31 -244 21z m170 -222 c56 -16 113 -69
140 -130 34 -75 34 -201 0 -276 -25 -56 -75 -106 -127 -128 -39 -16 -143 -18
-195 -4 -154 43 -219 293 -116 447 59 88 183 126 298 91z"/>
<path d="M9147 3709 c-117 -17 -208 -80 -247 -171 -19 -44 -22 -65 -18 -130 4
-67 9 -85 34 -121 43 -62 104 -97 249 -147 98 -33 138 -51 163 -76 39 -39 42
-81 9 -120 -19 -22 -34 -28 -80 -32 -54 -4 -58 -3 -92 31 -19 19 -35 44 -35
56 0 20 -5 21 -129 21 l-128 0 8 -46 c5 -25 16 -60 25 -79 21 -46 94 -112 150
-135 142 -61 334 -45 441 36 121 92 145 278 50 381 -47 51 -101 81 -235 129
-152 55 -182 77 -182 131 0 46 13 68 49 83 58 24 142 -11 155 -65 l6 -25 125
0 c124 0 125 0 125 23 0 46 -32 117 -72 158 -50 52 -124 86 -213 99 -78 11
-78 11 -158 -1z"/>
<path d="M10007 3710 c-75 -10 -178 -61 -217 -108 -44 -53 -64 -122 -57 -198
10 -131 78 -194 282 -264 167 -57 194 -77 195 -141 0 -56 -36 -84 -112 -84
-55 0 -62 3 -89 33 -16 18 -29 41 -29 52 0 19 -7 20 -126 20 l-127 0 7 -47
c17 -126 130 -220 297 -246 87 -13 198 2 268 37 184 94 215 347 55 457 -25 17
-93 49 -152 70 -198 73 -222 90 -222 154 0 49 39 80 102 80 43 0 53 -4 79 -33
16 -18 29 -39 29 -47 0 -13 22 -15 130 -15 l130 0 -7 33 c-15 84 -56 147 -122
189 -80 50 -201 73 -314 58z"/>
<path d="M6159 3696 c-123 -34 -240 -130 -293 -239 -72 -146 -70 -342 4 -487
29 -56 113 -145 168 -177 149 -88 375 -88 524 0 79 46 165 155 192 245 l7 22
-127 0 -127 0 -35 -41 c-47 -54 -101 -79 -177 -79 -74 0 -129 24 -174 75 -44
51 -61 94 -68 174 -10 122 43 237 129 283 33 17 60 22 113 22 86 0 143 -26
183 -84 l27 -39 128 -1 128 0 -6 23 c-41 143 -167 262 -320 303 -62 17 -214
17 -276 0z"/>
<path d="M6910 3216 l0 -486 115 0 115 0 2 183 3 182 30 0 c29 0 35 -9 130
-182 l100 -183 133 0 c73 0 131 3 129 8 -2 4 -52 89 -111 189 -58 100 -106
184 -106 187 0 2 15 10 34 16 47 15 122 84 148 134 13 26 23 67 26 112 6 101
-16 163 -82 229 -82 83 -106 88 -408 93 l-258 3 0 -485z m444 280 c48 -20 66
-51 66 -114 0 -45 -4 -58 -28 -82 -32 -31 -95 -44 -192 -38 l-55 3 -3 109 c-1
61 0 116 2 123 7 18 166 18 210 -1z"/>
<path d="M6143 2605 c-159 -43 -270 -147 -324 -305 -42 -123 -28 -304 33 -424
47 -92 160 -183 269 -217 78 -24 232 -26 310 -3 143 42 246 138 293 272 l15
42 -126 0 -126 0 -35 -41 c-47 -54 -101 -79 -177 -79 -74 0 -129 24 -174 75
-52 60 -65 99 -65 200 -1 74 3 99 22 140 42 90 103 133 203 142 72 7 152 -27
194 -81 l27 -36 129 0 129 0 -18 48 c-51 134 -161 228 -309 267 -71 19 -201
18 -270 0z"/>
<path d="M6890 2125 l0 -485 270 0 270 0 0 90 0 89 -152 3 -153 3 -3 393 -2
392 -115 0 -115 0 0 -485z"/>
<path d="M7552 2258 l3 -353 27 -57 c55 -119 152 -188 291 -210 191 -29 375
55 445 205 35 75 42 149 42 464 l0 303 -120 0 -120 0 0 -321 c0 -275 -2 -326
-16 -355 -26 -54 -68 -78 -144 -82 -82 -4 -125 17 -157 78 -23 42 -23 50 -23
362 l0 318 -115 0 -116 0 3 -352z"/>
<path d="M8530 2124 l0 -486 278 4 c303 4 329 9 408 72 76 61 105 188 64 284
-24 55 -86 118 -127 128 -29 8 -30 21 -2 29 12 4 39 23 60 42 100 90 85 278
-28 355 -74 51 -124 58 -400 58 l-253 0 0 -486z m425 296 c81 -18 113 -107 61
-167 -24 -27 -27 -28 -140 -31 l-116 -4 0 99 c0 55 3 103 7 106 9 10 142 8
188 -3z m39 -384 c44 -18 66 -52 66 -99 0 -85 -40 -107 -195 -107 l-105 0 0
110 0 110 100 0 c63 0 113 -5 134 -14z"/>
</g>
</svg>
